<svg xmlns="http://www.w3.org/2000/svg" viewBox="0 0 52.039001 23.403999">
	<style>
		.path-style {
			fill: #87142e;
			stroke: none;
			fill-rule: nonzero;
			fill-opacity: 1
		}
	</style>
	<g transform="translate(0,-273.596)">
		<g transform="matrix(0.26627087,0,0,0.26735828,-53.981638,217.48933)">
			<path
				d="m 312.72874,255.38311 c 1.43579,7.32441 6.96394,9.26304 15.72413,9.26304 8.76021,0 14.28836,-1.93863 15.72717, -9.26304 l 8.54213,-43.37089 c 0.14539,-0.79058 -0.14239,-1.43579 -1.07535,-1.43579 h -14.93657 c -0.7906,0 -1.36311, 0.64521 -1.50849,1.43579 l -6.10367,37.98512 c -0.0698,0.57253 -0.14237,0.93299 -0.64522,0.93299 -0.50284,0 -0.57552, -0.36046 -0.64521,-0.93298 l -6.10365,-37.98512 c -0.14236,-0.79058 -0.71791,-1.43579 -1.50851,-1.43579 h -14.93655 c -0.93298,0 -1.21772,0.64521 -1.07535,1.43579 z m 0,0"
				class="path-style"
			/>
			<path
				d="m 241.05986,263.92825 c 0.79059,0 1.43578,-0.64823 1.43578,-1.43882 v -18.95621 h 13.40082 c 0,0 0.52404,0.0364 0.77546,-0.16055 0.2908,-0.22416 0.37259,-0.66945 0.37259,-0.66945 l 2.16883,-11.00781 c 0,0 0.17872,-0.54826 -0.11814, -0.88751 -0.23628,-0.26656 -0.95418,-0.27262 -0.95418,-0.27262 h -15.64539 v -3.87727 c 0,-1.79324 0.57555,-2.29607 2.36878, -2.29607 h 14.96079 c 0,0 0.40289,0.0211 0.70579,-0.21809 0.21204,-0.16964 0.28171,-0.53616 0.28171,-0.53616 l 2.07493, -10.56253 v -0.96325 c 0,-0.78758 -0.64821,-1.36311 -1.43578,-1.4358 -2.9443,-0.35746 -10.3414,-0.79061 -16.58744,-0.79061 -9.04796,0 -19.31668,2.08403 -19.31668,16.80251 v 17.43255 c 3.37747,6.93063 5.39788,16.32393 6.07642,19.83769 z m 0,0"
				class="path-style"
			/>
			<path
				d="m 283.04643,224.56186 c 0.0697,-0.5725 0.14237,-0.93295 0.6452,-0.93295 0.50284,0 0.57249,0.36044 0.64521,0.93295 l 2.65652,16.73284 h -6.60347 z m -22.54875,39.42093 h 14.93658 c 0.7906,0 1.36311,-0.6452 1.5085,-1.43582 l 1.2904,-8.0423 h 10.91391 l 1.29343,8.0423 c 0.1454,0.79062 0.7179,1.43582 1.5085,1.43582 h 14.93657 c 0.93298,0 1.2177,-0.6452 1.07533,-1.43582 l -8.54513,-43.37087 c -1.4358,-7.32441 -6.96394,-9.26304 -15.72414,-9.26304 -8.76021,0 -14.28834,1.93863 -15.72414,9.26304 l -8.54514,43.37087 c -0.14541,0.79061 0.14237,1.43581 1.07533,1.43581"
				class="path-style"
			/>
			<path
				d="m 375.85855,227.37592 c 0,-12.692 -7.62732,-15.98768 -15.53028,-16.65408 -0.47558,-0.0393 -0.7391,-0.10298 -1.04506,0.18174 -0.4483,0.415 -0.37863,1.04201 -0.37863,1.04201 v 51.26174 c 0,0.79061 0.6543,1.4358 1.4449,1.4358 h 8.79351 c 0.52405,-2.84736 2.7565,-14.02783 6.71556,-21.55821 z m 0,0"
				class="path-style"
			/>
			<path
				d="m 380.99593,290.00289 c 4.60426,-0.26656 9.5296,-1.08442 10.68974,-1.769 4.94958,-5.6069 6.45808,-34.34109 6.48231, -50.02283 -1.28737,-0.0697 -2.92308,-0.13026 -4.67695,-0.13026 -6.79127,0 -10.3626,0.91784 -11.44097,1.7781 -4.73148,3.77427 -8.62995,17.47801 -9.97488,25.22951 l -0.44831,2.57172 h -142.3533 l -0.44529,-2.56868 c -1.35099,-7.75758 -5.25551,-21.46735 -9.97791,-25.23255 -1.07837,-0.86026 -4.64969,-1.7781 -11.44098,-1.7781 -1.75385,0 -3.38653,0.0606 -4.67695,0.13026 0.0273, 15.68174 1.53274,44.41593 6.48231,50.02283 1.16319,0.68761 6.08853,1.50546 10.69279,1.769 l 2.35968,0.13631 0.49374,2.31122 1.05716,4.94351 h 5.5978 l 1.02992,-4.46794 0.55432,-2.4021 h 138.9001 l 0.55435,2.4021 1.02989,4.46794 h 5.59779 l 1.05717,-4.94351 0.49678,-2.31122 z m 0,0"
				class="path-style"
			/>
		</g>
	</g>
</svg>
